<svg width="20" height="20" viewBox="0 0 20 20" fill="none" xmlns="http://www.w3.org/2000/svg">
<path d="M17.8844 3.88203C17.8095 3.82369 17.7223 3.78317 17.6295 3.76354C17.5366 3.74392 17.4405 3.7457 17.3484 3.76875L12.5727 4.9625L7.77969 2.56562C7.64614 2.49901 7.49317 2.48238 7.34844 2.51875L2.34844 3.76875C2.21323 3.80254 2.09319 3.88057 2.00741 3.99041C1.92163 4.10026 1.87502 4.23562 1.875 4.375V15.625C1.87501 15.72 1.89667 15.8137 1.93833 15.899C1.97998 15.9844 2.04054 16.0591 2.1154 16.1176C2.19025 16.176 2.27745 16.2166 2.37035 16.2363C2.46326 16.256 2.55943 16.2543 2.65156 16.2312L7.42734 15.0375L12.2203 17.4344C12.3073 17.4773 12.403 17.4997 12.5 17.5C12.5511 17.5 12.602 17.4937 12.6516 17.4812L17.6516 16.2312C17.7868 16.1974 17.9068 16.1194 17.9926 16.0096C18.0784 15.8997 18.125 15.7644 18.125 15.625V4.375C18.125 4.27994 18.1034 4.18613 18.0617 4.1007C18.02 4.01528 17.9593 3.94049 17.8844 3.88203ZM8.125 4.13593L11.875 6.01093V15.8641L8.125 13.9891V4.13593ZM3.125 4.86328L6.875 3.92578V13.8867L3.125 14.8242V4.86328ZM16.875 15.1367L13.125 16.0742V6.11328L16.875 5.17578V15.1367Z" fill="#4D4D4D"/>
</svg>
