<svg width="20" height="20" viewBox="0 0 20 20" fill="none" xmlns="http://www.w3.org/2000/svg">
<path d="M18.5414 8.29766L4.79766 3.20313L4.78516 3.19922C4.56394 3.12305 4.32578 3.1105 4.09777 3.16299C3.86977 3.21549 3.66107 3.33092 3.49542 3.49616C3.32978 3.66139 3.21383 3.86981 3.16078 4.09768C3.10773 4.32556 3.11969 4.56375 3.19532 4.78516C3.19627 4.78943 3.19757 4.79361 3.19922 4.79766L8.29766 18.5414C8.3814 18.7865 8.54022 18.9989 8.75157 19.1485C8.96292 19.2982 9.21605 19.3774 9.47501 19.375H9.49844C9.76251 19.373 10.0189 19.2862 10.2299 19.1274C10.4409 18.9686 10.5953 18.7462 10.6703 18.493L10.675 18.4773L12.3813 12.3836L18.475 10.6773L18.4906 10.6727C18.742 10.5953 18.9625 10.4407 19.1209 10.2308C19.2792 10.0209 19.3674 9.76635 19.3727 9.50345C19.3781 9.24055 19.3004 8.98265 19.1507 8.76645C19.0011 8.55024 18.787 8.38675 18.5391 8.29922L18.5414 8.29766ZM11.7063 11.2734C11.6031 11.3024 11.509 11.3574 11.4332 11.4332C11.3574 11.509 11.3024 11.6031 11.2734 11.7063L9.47657 18.125L9.47188 18.1117L4.37501 4.375L18.1109 9.47032L18.1234 9.475L11.7063 11.2734Z" fill="#4D4D4D"/>
</svg>
