<svg width="24" height="24" viewBox="0 0 24 24" fill="none" xmlns="http://www.w3.org/2000/svg">
<path fill-rule="evenodd" clip-rule="evenodd" d="M4.01672 4.76333C4.63068 4.14942 5.453 3.78877 6.32049 3.75295C7.18798 3.71713 8.03724 4.00875 8.69972 4.56994C9.36221 5.13114 9.7895 5.92088 9.8968 6.78246C10.0041 7.64403 9.78356 8.51446 9.27896 9.221L7.01707 12.3875C6.95411 12.4757 6.87101 12.5475 6.77468 12.5971C6.67835 12.6467 6.57158 12.6726 6.46323 12.6726C6.35489 12.6726 6.24812 12.6467 6.15179 12.5971C6.05546 12.5475 5.97236 12.4757 5.9094 12.3875L3.64751 9.221C3.16938 8.55528 2.94395 7.74104 3.0116 6.92421C3.07926 6.10737 3.43558 5.34132 4.01672 4.76333ZM6.46323 8.34428C6.68757 8.34428 6.90687 8.27775 7.0934 8.15312C7.27993 8.02848 7.42531 7.85133 7.51116 7.64407C7.59701 7.43682 7.61947 7.20875 7.57571 6.98873C7.53194 6.7687 7.42391 6.56659 7.26528 6.40796C7.10665 6.24933 6.90454 6.14131 6.68452 6.09754C6.46449 6.05377 6.23643 6.07624 6.02917 6.16209C5.82191 6.24794 5.64476 6.39332 5.52013 6.57985C5.39549 6.76638 5.32897 6.98567 5.32897 7.21001C5.32898 7.51083 5.44849 7.79933 5.6612 8.01204C5.87392 8.22475 6.16241 8.34426 6.46323 8.34428ZM6.46271 14.3326C6.55208 14.3326 6.64057 14.3502 6.72313 14.3844C6.80569 14.4186 6.88071 14.4688 6.9439 14.5319C7.00709 14.5951 7.05722 14.6702 7.09141 14.7527C7.1256 14.8353 7.1432 14.9238 7.14319 15.0131V16.4642C7.14319 17.1022 7.39663 17.714 7.84775 18.1652C8.29887 18.6163 8.91072 18.8697 9.5487 18.8697C10.1867 18.8697 10.7985 18.6163 11.2497 18.1652C11.7008 17.714 11.9542 17.1022 11.9542 16.4642V10.2922C11.9537 9.79726 12.0508 9.30706 12.2398 8.84964C12.4289 8.39222 12.7062 7.97655 13.056 7.62639C13.4058 7.27623 13.8212 6.99845 14.2784 6.80892C14.7357 6.6194 15.2258 6.52185 15.7207 6.52185C16.2156 6.52185 16.7057 6.6194 17.163 6.80892C17.6202 6.99845 18.0356 7.27623 18.3854 7.62639C18.7352 7.97655 19.0125 8.39222 19.2016 8.84964C19.3906 9.30706 19.4877 9.79726 19.4872 10.2922V13.5008C19.4867 13.681 19.4149 13.8536 19.2873 13.9809C19.1597 14.1082 18.9869 14.1796 18.8067 14.1796C18.6265 14.1796 18.4537 14.1082 18.3261 13.9809C18.1985 13.8536 18.1266 13.681 18.1262 13.5008V10.2922C18.1266 9.97605 18.0647 9.66291 17.944 9.3707C17.8233 9.0785 17.6462 8.81295 17.4227 8.58925C17.1993 8.36555 16.934 8.18808 16.642 8.067C16.3499 7.94592 16.0369 7.88359 15.7207 7.88359C15.4045 7.88359 15.0915 7.94592 14.7994 8.067C14.5074 8.18808 14.2421 8.36555 14.0187 8.58925C13.7952 8.81295 13.6181 9.0785 13.4974 9.3707C13.3767 9.66291 13.3148 9.97605 13.3152 10.2922V16.4642C13.3152 17.4631 12.9184 18.4212 12.212 19.1275C11.5057 19.8339 10.5476 20.2307 9.5487 20.2307C8.54977 20.2307 7.59175 19.8339 6.8854 19.1275C6.17905 18.4212 5.78222 17.4631 5.78222 16.4642V15.0131C5.78221 14.9238 5.79981 14.8353 5.834 14.7527C5.8682 14.6701 5.91832 14.5951 5.98151 14.5319C6.04471 14.4687 6.11973 14.4186 6.20229 14.3844C6.28485 14.3502 6.37335 14.3326 6.46271 14.3326ZM20.0254 16.2204C19.6648 15.9795 19.2409 15.8509 18.8072 15.8509C18.2258 15.8515 17.6684 16.0827 17.2573 16.4938C16.8462 16.9049 16.615 17.4623 16.6143 18.0437C16.6143 18.4774 16.7429 18.9014 16.9839 19.262C17.2248 19.6226 17.5673 19.9037 17.968 20.0696C18.3687 20.2356 18.8096 20.279 19.235 20.1944C19.6603 20.1098 20.0511 19.901 20.3577 19.5943C20.6644 19.2876 20.8733 18.8969 20.9579 18.4715C21.0425 18.0461 20.9991 17.6052 20.8331 17.2045C20.6671 16.8039 20.386 16.4614 20.0254 16.2204Z" fill="white"/>
</svg>
