<svg width="12" height="13" viewBox="0 0 12 13" fill="none" xmlns="http://www.w3.org/2000/svg">
<path d="M7.31357 9.85157C7.25422 10.089 7.12063 10.2078 6.91279 10.2078C6.67531 10.2078 6.53431 10.0853 6.48978 9.8404C6.37108 9.02409 6.23752 8.3525 6.08911 7.82565C5.94062 7.29872 5.72354 6.88127 5.43789 6.57328C5.15215 6.26531 4.75141 6.03154 4.23565 5.87199C3.71986 5.71244 3.03525 5.58813 2.18182 5.49908C1.9295 5.46197 1.80334 5.32839 1.80334 5.09834C1.80334 4.86828 1.9295 4.73469 2.18182 4.69759C2.85714 4.60111 3.42301 4.49351 3.87943 4.37477C4.33584 4.25603 4.70688 4.10204 4.99253 3.91281C5.27826 3.72356 5.50833 3.47681 5.68274 3.17254C5.85714 2.86827 6.00555 2.48794 6.12798 2.03154C6.25048 1.57514 6.37108 1.02041 6.48978 0.367352C6.54176 0.122451 6.68276 0 6.91279 0C7.13545 0 7.26904 0.126159 7.31357 0.378477C7.41001 1.0167 7.51389 1.56216 7.62522 2.01484C7.73655 2.46753 7.88314 2.84601 8.06499 3.15028C8.24676 3.45454 8.48606 3.70315 8.78289 3.89611C9.07979 4.08906 9.45827 4.24676 9.91833 4.36921C10.3785 4.49165 10.9499 4.60111 11.6326 4.69759C11.8775 4.73469 12 4.86828 12 5.09834C12 5.33581 11.8775 5.46939 11.6326 5.49908C10.9499 5.58813 10.3803 5.69388 9.92392 5.81633C9.46751 5.93878 9.09648 6.09648 8.81082 6.28943C8.52509 6.48238 8.29316 6.73099 8.11503 7.03526C7.9369 7.33953 7.78849 7.71986 7.66979 8.17628C7.55101 8.63269 7.43227 9.19112 7.31357 9.85157Z" fill="white"/>
<path d="M2.82746 11.7662C2.79035 11.9295 2.69017 12.0111 2.52691 12.0111C2.36364 12.0111 2.25974 11.9183 2.21521 11.7328C2.11132 11.2059 2.02412 10.8219 1.95362 10.5808C1.88312 10.3396 1.73284 10.1707 1.50278 10.0742C1.27272 9.97776 0.86456 9.88501 0.278293 9.79595C0.0927643 9.77368 0 9.67348 0 9.49536C0 9.31723 0.0853439 9.21703 0.256031 9.19477C0.849723 9.09089 1.26345 8.99073 1.49722 8.89429C1.73098 8.79778 1.88312 8.63079 1.95362 8.39331C2.02412 8.15583 2.11132 7.77367 2.21521 7.24681C2.25974 7.06124 2.36364 6.96846 2.52691 6.96846C2.69017 6.96846 2.79035 7.06124 2.82746 7.24681C2.93136 7.77367 3.02041 8.15583 3.09462 8.39331C3.16883 8.63079 3.32468 8.79778 3.56215 8.89429C3.79966 8.99073 4.21152 9.09089 4.79772 9.19477C4.97585 9.21703 5.06491 9.31723 5.06491 9.49536C5.06491 9.67348 4.97585 9.77368 4.79772 9.79595C4.21152 9.88501 3.79966 9.97776 3.56215 10.0742C3.32468 10.1707 3.16883 10.3414 3.09462 10.5862C3.02041 10.8312 2.93136 11.2245 2.82746 11.7662Z" fill="white"/>
</svg>
